<?xml version="1.0" encoding="UTF-8"?>
<svg version="1.1" xmlns="http://www.w3.org/2000/svg" width="512" height="512">
<path d="M0 0 C2.21781251 -0.00571446 4.43562209 -0.01268284 6.65342712 -0.02079773 C12.63294652 -0.03862636 18.61231833 -0.0375801 24.59185624 -0.03185534 C29.60378581 -0.0287482 34.61568765 -0.03487289 39.62761325 -0.04089409 C52.13662785 -0.05570283 64.64557182 -0.05215459 77.15458133 -0.04003078 C87.97222608 -0.03010544 98.78969961 -0.04303553 109.60731796 -0.06696498 C120.76453907 -0.09145617 131.9216984 -0.10054132 143.07895011 -0.09431225 C149.32299475 -0.09095885 155.56689805 -0.09324934 161.81092262 -0.11056328 C167.68724021 -0.12614884 173.56323363 -0.12194922 179.43953896 -0.10325813 C181.58111005 -0.09960404 183.72270581 -0.10258637 185.864254 -0.11314392 C220.4995609 -0.27069563 251.63151568 10.85091732 276.55541992 35.40405273 C284.18383239 43.02063821 290.19238263 51.11072051 295.55541992 60.40405273 C295.90878418 61.01345703 296.26214844 61.62286133 296.6262207 62.25073242 C301.10976876 70.15021857 304.37691891 78.18747704 306.93041992 86.90405273 C307.16913818 87.70915283 307.40785645 88.51425293 307.65380859 89.34375 C311.71684655 104.18963516 311.84813218 119.25364252 311.81420898 134.51928711 C311.81692542 136.59418357 311.82048998 138.66907907 311.8248291 140.74397278 C311.83387781 146.33278878 311.83044013 151.92153021 311.82407093 157.51034737 C311.81897172 163.38714916 311.8237132 169.263945 311.82684326 175.14074707 C311.83047155 185.00570815 311.82571375 194.87063919 311.81616211 204.7355957 C311.80527978 216.10546893 311.80880616 227.4752704 311.81981492 238.84514189 C311.8289203 248.64521504 311.83015723 258.44526671 311.82493758 268.24534273 C311.82183571 274.08180192 311.82135914 279.91822749 311.82801056 285.75468445 C311.83383088 291.24432892 311.82970223 296.73388178 311.81822205 302.22351646 C311.81560034 304.22605424 311.81629736 306.22859987 311.82074738 308.23113441 C311.84979416 322.64215975 311.53921978 337.12286198 307.55541992 351.09155273 C307.34957275 351.81866455 307.14372559 352.54577637 306.93164062 353.29492188 C302.67935921 367.33234162 295.95938245 381.1262379 286.55541992 392.40405273 C285.70280421 393.47873883 284.85130736 394.55431322 284.00073242 395.63061523 C278.18884559 402.86394973 271.99763708 408.80630438 264.55541992 414.40405273 C263.76393555 415.05631836 262.97245117 415.70858398 262.15698242 416.38061523 C237.77715765 435.68451434 207.66316686 439.72092886 177.63305664 439.67871094 C175.56641965 439.68306762 173.49978428 439.68825393 171.43315125 439.69419861 C165.86047471 439.70749957 160.28786636 439.70817708 154.71517706 439.70563531 C150.04149596 439.70455914 145.36782829 439.70946557 140.69415009 439.71424073 C129.6540812 439.72530598 118.61404635 439.7257907 107.57397461 439.71972656 C96.23657585 439.71369418 84.89930142 439.72598604 73.56192386 439.74729663 C63.78302219 439.76499267 54.0041598 439.77090129 44.22524273 439.76765889 C38.4047953 439.765858 32.58443649 439.76836125 26.76400375 439.78237343 C21.28253379 439.79507753 15.80125547 439.79289051 10.31978798 439.77996254 C8.32579924 439.77762401 6.33179648 439.78023156 4.33782387 439.78858566 C-12.64385497 439.85451581 -30.19936431 439.05797154 -46.31958008 433.21655273 C-47.1805127 432.91612061 -48.04144531 432.61568848 -48.9284668 432.30615234 C-65.68915416 426.2480538 -79.50428915 416.58442725 -92.44458008 404.40405273 C-93.10973633 403.81495117 -93.77489258 403.22584961 -94.46020508 402.61889648 C-114.03610998 384.51516329 -126.6132751 354.75226301 -127.72418022 328.36922264 C-127.87604868 322.56624414 -127.86225663 316.7639776 -127.84863281 310.95947266 C-127.85434727 308.74166014 -127.86131565 306.52385056 -127.86943054 304.30604553 C-127.88725917 298.32652614 -127.88621292 292.34715432 -127.88048816 286.36761642 C-127.87738102 281.35568685 -127.88350571 276.34378501 -127.8895269 271.33185941 C-127.90433564 258.82284481 -127.9007874 246.31390083 -127.8886636 233.80489133 C-127.87873825 222.98724658 -127.89166834 212.16977305 -127.91559779 201.35215469 C-127.94008898 190.19493359 -127.94917413 179.03777425 -127.94294506 167.88052255 C-127.93959167 161.63647791 -127.94188215 155.39257461 -127.95919609 149.14855003 C-127.97478165 143.27223244 -127.97058203 137.39623903 -127.95189095 131.5199337 C-127.94823685 129.3783626 -127.95121918 127.23676685 -127.96177673 125.09521866 C-128.03778107 108.38684107 -126.31787161 92.36135894 -120.25708008 76.65405273 C-119.96446289 75.8794873 -119.6718457 75.10492188 -119.37036133 74.30688477 C-114.90418815 62.9716442 -108.35636971 52.65449658 -100.44458008 43.40405273 C-99.75750977 42.59581055 -99.07043945 41.78756836 -98.36254883 40.95483398 C-72.47545041 11.35014876 -38.42641964 -0.09019107 0 0 Z M-56.44458008 65.40405273 C-57.22446289 66.10143555 -58.0043457 66.79881836 -58.80786133 67.51733398 C-76.24182352 83.98776113 -87.4689255 108.44825216 -88.63740158 132.34797668 C-88.74223405 136.95035617 -88.73825779 141.5526731 -88.73510742 146.15600586 C-88.74110374 147.91840903 -88.74791179 149.68080959 -88.75546265 151.44320679 C-88.77302202 156.19989996 -88.77781388 160.95652103 -88.77909422 165.71324348 C-88.78052261 168.69581461 -88.78480525 171.6783678 -88.79008865 174.66093445 C-88.80855882 185.09712879 -88.81676344 195.53327228 -88.81518555 205.96948242 C-88.81398642 215.64651061 -88.83505166 225.32331495 -88.86667287 235.00028658 C-88.89296633 243.34897789 -88.90354733 251.69759671 -88.90227473 260.04632902 C-88.90176873 265.01449188 -88.90724842 269.98245574 -88.92863083 274.95057678 C-88.94823389 279.63262663 -88.94798976 284.31429222 -88.93359756 288.99635696 C-88.93153507 290.6972829 -88.93605369 292.39823432 -88.94831848 294.09911728 C-89.07346395 312.68519877 -85.95345631 329.79653321 -77.44458008 346.40405273 C-76.9212207 347.45979492 -76.39786133 348.51553711 -75.85864258 349.60327148 C-71.62534349 357.50198808 -66.0068636 363.69075682 -59.77514648 370.03393555 C-58.70283878 371.13811735 -57.66706006 372.27770863 -56.64379883 373.42749023 C-49.00237643 381.83897846 -38.45600025 387.90172744 -28.06958008 392.27905273 C-27.46001465 392.54073242 -26.85044922 392.80241211 -26.22241211 393.07202148 C-12.25071109 398.59695268 1.61218477 399.99713989 16.47338867 399.92163086 C18.30051222 399.92706758 20.12763138 399.93419883 21.95474243 399.94287109 C26.86392337 399.96092332 31.77276362 399.95411269 36.68194962 399.94135475 C41.85226519 399.93113223 47.0225542 399.94064584 52.19287109 399.94689941 C60.87073938 399.95414914 69.5484709 399.94465872 78.22631836 399.92553711 C88.21765322 399.9037736 98.20866141 399.91082687 108.19998837 399.93284273 C116.82305895 399.95107336 125.44603198 399.9535178 134.06911564 399.94308805 C139.19972641 399.93689503 144.33018434 399.93590066 149.46078491 399.94923401 C154.28737838 399.96090421 159.11355623 399.95256588 163.94010544 399.92965698 C165.69710988 399.9244289 167.45415014 399.92578047 169.21113968 399.93470764 C183.85859132 400.00219179 197.80569608 398.03752233 211.36791992 392.15405273 C212.06602783 391.85740723 212.76413574 391.56076172 213.48339844 391.25512695 C224.29098304 386.49338781 233.07921021 379.53605089 241.55541992 371.40405273 C242.26569336 370.7453418 242.9759668 370.08663086 243.70776367 369.40795898 C264.38323478 349.68490881 272.0131764 321.90187243 272.78789628 294.14232433 C273.00233005 284.08592754 272.98005078 274.02661283 272.95839643 263.96848726 C272.95069073 259.25684911 272.95787449 254.54522667 272.96255493 249.83358765 C272.96797803 241.93468015 272.96090894 234.03585745 272.9465332 226.13696289 C272.93017932 217.04702159 272.93552903 207.95728196 272.95201242 198.86734545 C272.96568567 191.00767611 272.96751958 183.14806697 272.95969641 175.28838956 C272.95505617 170.61789166 272.95429379 165.94748818 272.96430588 161.27699661 C272.97306032 156.88869278 272.96680141 152.500646 272.94962311 148.11236954 C272.94570449 146.51619389 272.94671131 144.91999605 272.9534111 143.32382965 C273.0570117 116.10414012 264.91035158 91.78087016 246.55541992 71.40405273 C245.5093457 70.23422852 245.5093457 70.23422852 244.44213867 69.04077148 C227.97141147 51.60649168 203.48888307 40.35756019 179.58409882 39.21408653 C174.93902809 39.11321849 170.29411306 39.12182223 165.64819336 39.12939453 C163.86944873 39.12503887 162.09070597 39.1198529 160.31196594 39.11390686 C155.51214714 39.10059588 150.71240746 39.09992945 145.91257381 39.10247016 C141.88972705 39.10354549 137.86689594 39.09864208 133.84405255 39.09386474 C124.34369549 39.08279636 114.84337796 39.08231676 105.34301758 39.08837891 C95.57960531 39.09441367 85.81633733 39.08211413 76.05294967 39.06080884 C67.63723139 39.04312739 59.22155876 39.03720185 50.80582261 39.04044658 C45.79423229 39.04224954 40.78274487 39.03972292 35.77117157 39.02573204 C31.05306788 39.01305167 26.33518713 39.01519312 21.61708641 39.02814293 C19.89835976 39.03048641 18.17961692 39.0278554 16.46090889 39.01951981 C-11.18027734 38.89526562 -35.70144523 46.71915142 -56.44458008 65.40405273 Z " fill="#000000" transform="translate(164.444580078125,36.595947265625)"/>
<path d="M0 0 C28.3301962 -1.11186013 55.55742329 10.23499211 76.48828125 28.77734375 C78.07678535 30.25095604 79.66060139 31.72964857 81.23828125 33.21484375 C81.8415625 33.75367188 82.44484375 34.2925 83.06640625 34.84765625 C103.89087543 54.21246638 112.30971477 82.94457639 114.4921875 110.41015625 C115.22958055 142.56049302 101.69103889 172.246681 80.0234375 195.48828125 C57.57847426 217.46105031 29.15891008 227.7779503 -1.97021484 227.63696289 C-29.64164298 227.02405181 -54.56062984 215.87706855 -74.76171875 197.21484375 C-75.84839844 196.24998047 -75.84839844 196.24998047 -76.95703125 195.265625 C-95.60992804 177.85877192 -108.40091337 150.77230452 -109.9387207 125.28076172 C-110.64807127 89.7001894 -102.78946259 60.27810073 -77.82836914 33.828125 C-70.56070629 26.36726471 -62.74988206 20.4497081 -53.76171875 15.21484375 C-52.65441406 14.56902344 -51.54710937 13.92320312 -50.40625 13.2578125 C-34.55666821 4.72913953 -17.75675323 1.38135987 0 0 Z M-54.4765625 65.58203125 C-67.22936314 80.27500156 -73.36688173 98.90426102 -72.76171875 118.21484375 C-71.09715085 138.89076731 -61.70335326 158.0157014 -45.9765625 171.625 C-29.98134061 184.24837011 -11.02246087 189.81214515 9.23828125 188.21484375 C24.45928433 186.22548292 37.55244355 180.17215129 49.23828125 170.21484375 C50.22828125 169.49296875 51.21828125 168.77109375 52.23828125 168.02734375 C66.4939628 155.86460159 73.96794935 136.57825557 75.58203125 118.328125 C76.06335597 99.13530195 70.29527566 82.08513685 58.23828125 67.21484375 C57.40683594 66.13783203 57.40683594 66.13783203 56.55859375 65.0390625 C45.37157374 51.25601153 27.57309166 42.84177372 10.16796875 40.64453125 C-14.95762293 38.14129728 -37.05907643 47.52967643 -54.4765625 65.58203125 Z " fill="#000000" transform="translate(253.76171875,141.78515625)"/>
<path d="M0 0 C6.22965938 5.54026045 9.42634384 11.41695199 10.27734375 19.69921875 C10.58222948 28.44334139 8.95816639 34.99480878 3.375 41.8125 C-2.6050368 48.02045109 -7.96597933 50.17940585 -16.5625 50.4375 C-24.56249172 50.1487925 -30.45942641 48.34629114 -36.39453125 42.859375 C-41.49895767 36.9476792 -44.21318599 29.79461271 -44 22 C-43.43778402 14.49207415 -41.10908311 9.48665969 -36 4 C-35.47277344 3.43152344 -34.94554687 2.86304687 -34.40234375 2.27734375 C-25.16984333 -6.6059368 -10.39104903 -7.60106335 0 0 Z " fill="#000000" transform="translate(391,115)"/>
</svg>
