<?xml version="1.0" encoding="UTF-8"?>
<svg version="1.1" xmlns="http://www.w3.org/2000/svg" width="512" height="512">
<path d="M0 0 C23.86514206 20.36639439 30.7653356 51.42118548 33.19631767 81.38904572 C33.60807479 88.41786863 33.53596036 95.45308453 33.51977539 102.49121094 C33.51949277 104.22694904 33.51965272 105.96268726 33.5202179 107.69842529 C33.52050294 112.37526213 33.51465371 117.05207294 33.50764394 121.72890377 C33.5013615 126.62959089 33.50080275 131.53027871 33.49961853 136.43096924 C33.49651957 145.69539236 33.48832564 154.95980357 33.47826904 164.22422147 C33.46496487 176.7543505 33.4595964 189.28448283 33.45376682 201.81461716 C33.44438469 221.53397242 33.42445621 241.25330258 33.40625 260.97265625 C5.02625 260.97265625 -23.35375 260.97265625 -52.59375 260.97265625 C-52.63113281 249.69207031 -52.66851562 238.41148437 -52.70703125 226.7890625 C-52.73732565 219.62043067 -52.76836327 212.45181465 -52.80273438 205.28320312 C-52.85709013 193.91790237 -52.90850845 182.55264548 -52.94018555 171.18725586 C-52.96327633 162.90756773 -52.99679629 154.62799607 -53.04245156 146.34840053 C-53.06623553 141.97098956 -53.08506079 137.59369288 -53.09136391 133.21621895 C-53.09748271 129.08178452 -53.11772196 124.94764195 -53.14802551 120.81331635 C-53.1566984 119.30951159 -53.16055115 117.80566852 -53.15875816 116.30183983 C-53.14392904 98.09770655 -54.843319 78.74293752 -68.15625 65.1015625 C-76.93877757 57.43092544 -87.73869572 55.51767039 -99.17578125 56.1640625 C-107.17165276 56.80891748 -114.61466181 57.75383665 -121.59375 61.97265625 C-122.604375 62.52953125 -123.615 63.08640625 -124.65625 63.66015625 C-137.40384631 73.69549803 -142.46697078 87.60979015 -144.3782177 103.36875916 C-144.86641695 109.26681062 -144.77546264 115.19470349 -144.79907227 121.109375 C-144.80866415 122.6376318 -144.81867497 124.16588603 -144.82907104 125.69413757 C-144.85598435 129.82368083 -144.87706694 133.95323536 -144.89707303 138.08281708 C-144.91901684 142.40565518 -144.94636426 146.72845908 -144.97312927 151.05126953 C-145.02294308 159.2285312 -145.06792364 167.40581196 -145.11115164 175.58311081 C-145.16987857 186.63917396 -145.23610433 197.69519207 -145.30190182 208.75121498 C-145.40529944 226.15833166 -145.49870621 243.56548731 -145.59375 260.97265625 C-173.97375 260.97265625 -202.35375 260.97265625 -231.59375 260.97265625 C-231.59375 170.55265625 -231.59375 80.13265625 -231.59375 -13.02734375 C-204.53375 -13.02734375 -177.47375 -13.02734375 -149.59375 -13.02734375 C-149.26375 -1.47734375 -148.93375 10.07265625 -148.59375 21.97265625 C-145.12875 17.02265625 -145.12875 17.02265625 -141.59375 11.97265625 C-126.72218757 -7.06294366 -103.84013541 -16.77277835 -80.27734375 -19.71484375 C-52.32117946 -22.08652259 -22.55534665 -17.62985679 0 0 Z " fill="#000000" transform="translate(427.59375,200.02734375)"/>
<path d="M0 0 C28.38 0 56.76 0 86 0 C86 90.42 86 180.84 86 274 C57.62 274 29.24 274 0 274 C0 183.58 0 93.16 0 0 Z " fill="#000000" transform="translate(57,187)"/>
<path d="M0 0 C11.43576176 7.81832692 18.44802145 18.5326269 21.74609375 31.89453125 C24.18340284 46.31055321 21.27982672 59.73901189 13.25 71.875 C5.72643051 82.18690993 -5.11217131 89.53824612 -17.75 91.875 C-28.44807749 92.91037091 -39.05937284 92.99877988 -48.75 87.875 C-50.03583984 87.22144531 -50.03583984 87.22144531 -51.34765625 86.5546875 C-63.27024182 79.97298868 -71.42329327 69.72195599 -75.6875 56.75 C-79.02191994 42.34947391 -77.14197492 28.50397117 -70 15.625 C-62.92814141 4.5929006 -52.70924848 -2.60257254 -40.21484375 -6.4296875 C-26.14442576 -9.25328886 -12.42454182 -7.26913028 0 0 Z " fill="#000000" transform="translate(127.75,58.125)"/>
</svg>
