<?xml version="1.0" encoding="UTF-8"?>
<svg version="1.1" xmlns="http://www.w3.org/2000/svg" width="512" height="512">
<path d="M0 0 C1.70489686 -0.0037406 3.40979201 -0.00834375 5.11468446 -0.01373065 C9.78147252 -0.02592555 14.4481887 -0.02570432 19.11498904 -0.02334189 C24.15539569 -0.02293283 29.19577957 -0.03398141 34.23617554 -0.04345703 C44.10486268 -0.06004904 53.97352593 -0.06556578 63.84222586 -0.06668179 C71.86721627 -0.06763317 79.89219882 -0.07174797 87.91718674 -0.07808304 C110.6867954 -0.09569099 133.45638522 -0.10492267 156.22600074 -0.10342209 C158.06613858 -0.10330222 158.06613858 -0.10330222 159.94345093 -0.10317993 C161.17171346 -0.10309817 162.39997599 -0.10301641 163.6654586 -0.10293217 C183.56448132 -0.10211953 203.46342829 -0.12125292 223.3624291 -0.14945666 C243.81153274 -0.17821057 264.26059947 -0.19199556 284.70972383 -0.19026911 C296.18349493 -0.18960605 307.65718663 -0.19506157 319.13093948 -0.21662521 C328.901156 -0.23487004 338.67125713 -0.23915728 348.44148333 -0.22560637 C353.42172109 -0.21909324 358.40173771 -0.21889949 363.38195419 -0.23631287 C367.95060456 -0.25212219 372.5188599 -0.24910036 377.08750109 -0.2317446 C378.7308156 -0.2286919 380.37416018 -0.23224099 382.0174392 -0.24346475 C397.89915621 -0.34466121 411.79174625 2.04025106 425.18807983 11.26742554 C426.23995483 11.98930054 427.29182983 12.71117554 428.37557983 13.45492554 C438.46309778 23.54244348 446.29617682 36.30255626 446.32230091 50.90827084 C446.32675875 52.06470528 446.3312166 53.22113972 446.33580953 54.41261762 C446.33553299 56.31953149 446.33553299 56.31953149 446.33525085 58.26496887 C446.33855075 59.62859087 446.34227659 60.9922119 446.34639233 62.35583168 C446.35640651 66.1070203 446.3601282 69.85819291 446.36278164 73.609393 C446.36668653 77.65392414 446.37626488 81.69844264 446.38499451 85.7429657 C446.40475577 95.51378411 446.41482562 105.28460354 446.4237223 115.05543694 C446.42810656 119.65867864 446.43347309 124.26191919 446.43871117 128.86515999 C446.45572464 144.1716599 446.47021756 159.4781591 446.47745991 174.78466702 C446.47936976 178.75670307 446.48129009 182.72873912 446.48324585 186.70077515 C446.48372959 187.68798721 446.48421333 188.67519927 446.48471173 189.69232685 C446.4930073 205.67504602 446.51833571 221.65769023 446.55082653 237.64037668 C446.58392531 254.05625773 446.6019113 270.47210074 446.60510415 286.88801533 C446.60726685 296.10210731 446.61598015 305.31609005 446.64156532 314.53014946 C446.66331102 322.3795797 446.67130383 330.22887416 446.66159854 338.07833111 C446.65706475 342.07997713 446.65888593 346.08134325 446.67835999 350.08295059 C446.6960714 353.75425245 446.69493018 357.42507186 446.67946269 361.09637941 C446.675988 363.03712252 446.69205333 364.97787116 446.70906717 366.9185428 C446.63358268 377.29793669 444.71149859 387.49069558 438.75057983 396.20492554 C438.1949939 397.03894897 437.63940796 397.87297241 437.06698608 398.73226929 C427.61614294 411.48403062 415.09828381 419.14618431 399.50180566 421.85937619 C392.79158628 422.68566683 386.04389005 422.54898843 379.29386902 422.53485107 C377.5922339 422.53859263 375.8906005 422.54319616 374.18896979 422.54858172 C369.53584257 422.56076459 364.88278751 422.56055684 360.22964799 422.55819297 C355.20221063 422.55778361 350.17479604 422.5688353 345.14736938 422.57830811 C335.30622491 422.5948931 325.4651044 422.60041652 315.62394712 422.60153286 C307.62138719 422.6024845 299.61883513 422.60660059 291.61627769 422.61293411 C268.9079147 422.63053954 246.19957059 422.63977405 223.49120072 422.63827316 C222.26799456 422.63819325 221.0447884 422.63811334 219.78451538 422.63803101 C217.94745576 422.63790836 217.94745576 422.63790836 216.07328381 422.63778324 C196.22929007 422.6369705 176.38537226 422.65610718 156.54140047 422.68430774 C136.14650575 422.71306163 115.75164804 422.72684666 95.35673255 422.72512019 C83.91427539 422.72445716 72.47189785 422.72991111 61.029459 422.75147629 C51.28671498 422.76972102 41.54408667 422.77400836 31.80133293 422.76045744 C26.83526485 422.7539445 21.86941855 422.75374994 16.90337181 422.77116394 C12.34771392 422.78697388 7.79245219 422.78395084 3.23680349 422.76659568 C1.59822947 422.76354313 -0.04037471 422.76709147 -1.67891314 422.77831583 C-17.54540393 422.87971287 -31.4296936 420.48488333 -44.81192017 411.26742554 C-45.86379517 410.54555054 -46.91567017 409.82367554 -47.99942017 409.07992554 C-58.08693811 398.9924076 -65.92001715 386.23229482 -65.94614124 371.62658024 C-65.95059909 370.4701458 -65.95505693 369.31371136 -65.95964986 368.12223345 C-65.9594655 366.85095754 -65.95928114 365.57968163 -65.95909119 364.2698822 C-65.96239109 362.9062602 -65.96611692 361.54263917 -65.97023267 360.17901939 C-65.98024684 356.42783078 -65.98396854 352.67665816 -65.98662198 348.92545807 C-65.99052687 344.88092693 -66.00010522 340.83640844 -66.00883484 336.79188538 C-66.02859611 327.02106697 -66.03866595 317.25024753 -66.04756263 307.47941414 C-66.0519469 302.87617243 -66.05731342 298.27293188 -66.0625515 293.66969109 C-66.07956497 278.36319117 -66.09405789 263.05669198 -66.10130024 247.75018406 C-66.10321009 243.77814801 -66.10513042 239.80611196 -66.10708618 235.83407593 C-66.10756992 234.84686387 -66.10805366 233.8596518 -66.10855206 232.84252422 C-66.11684764 216.85980506 -66.14217604 200.87716085 -66.17466686 184.89447439 C-66.20776564 168.47859334 -66.22575163 152.06275034 -66.22894448 135.64683574 C-66.23110718 126.43274376 -66.23982049 117.21876103 -66.26540565 108.00470161 C-66.28715135 100.15527138 -66.29514416 92.30597691 -66.28543887 84.45651997 C-66.28090508 80.45487394 -66.28272626 76.45350782 -66.30220032 72.45190048 C-66.31991173 68.78059863 -66.31877052 65.10977921 -66.30330303 61.43847167 C-66.29982833 59.49772856 -66.31589366 57.55697991 -66.3329075 55.61630827 C-66.25742301 45.23691439 -64.33533892 35.04415549 -58.37442017 26.32992554 C-57.81883423 25.4959021 -57.26324829 24.66187866 -56.69082642 23.80258179 C-47.46206105 11.35046386 -35.11379678 3.59564007 -19.89948583 0.67547488 C-13.30507927 -0.19603477 -6.63996646 -0.01384584 0 0 Z M-26.24942017 46.14242554 C-28.04535856 49.73430232 -28.69449048 52.24872074 -28.81192017 56.26742554 C-26.93543219 58.97137617 -26.93543219 58.97137617 -24.06192017 61.14242554 C-23.56184448 61.56386841 -23.0617688 61.98531128 -22.54653931 62.41952515 C-20.98614348 63.72576096 -19.40231371 64.9979745 -17.81192017 66.26742554 C-16.87734985 67.03441772 -15.94277954 67.80140991 -14.97988892 68.59164429 C-13.15744413 70.08557971 -11.32927931 71.57256404 -9.49551392 73.05258179 C-6.8648346 75.2237538 -4.33249592 77.46983911 -1.81192017 79.76742554 C1.5079747 82.79024975 4.88572095 85.69254715 8.37557983 88.51742554 C12.82660175 92.12212639 17.18006588 95.82112821 21.50057983 99.57992554 C22.13407349 100.13099976 22.76756714 100.68207397 23.42025757 101.24984741 C24.70639638 102.36905039 25.99244771 103.48835391 27.27841187 104.60775757 C34.42199225 110.81615177 41.58453855 116.99566526 48.93807983 122.95492554 C53.31959779 126.51010458 57.50518665 130.23512091 61.67636108 134.03305054 C64.18959215 136.26877086 66.76119463 138.40120236 69.37557983 140.51742554 C75.81519976 145.73261069 82.04263387 151.18074305 88.29159546 156.62094116 C92.98592505 160.69645078 97.71706724 164.729264 102.44100952 168.77035522 C104.22643607 170.30029312 106.00844129 171.83413354 107.78964233 173.36898804 C113.12358048 177.96119689 118.46850196 182.52387511 123.93807983 186.95492554 C128.31959779 190.51010458 132.50518665 194.23512091 136.67636108 198.03305054 C139.18959215 200.26877086 141.76119463 202.40120236 144.37557983 204.51742554 C148.82662882 208.1221483 153.17959981 211.82163658 157.50057983 215.57992554 C158.130448 216.12664917 158.76031616 216.6733728 159.40927124 217.23666382 C162.63074496 220.03527302 165.84344552 222.84337382 169.04745483 225.66195679 C170.28169195 226.73893774 171.51606179 227.81576662 172.75057983 228.89242554 C173.30979126 229.38911743 173.86900269 229.88580933 174.44515991 230.39755249 C179.16325811 234.49632484 183.65897805 237.68343732 190.06307983 237.76742554 C190.84425171 237.79836304 191.62542358 237.82930054 192.43026733 237.86117554 C199.49711168 236.33970197 205.12476217 230.84432302 210.37557983 226.14242554 C211.69009316 224.98420254 213.00520773 223.82666159 214.32089233 222.66976929 C214.9709021 222.09597534 215.62091187 221.5221814 216.2906189 220.93099976 C219.07987638 218.48555451 221.91181955 216.0925413 224.75057983 213.70492554 C229.2254074 209.93228692 233.68343255 206.14100195 238.12557983 202.32992554 C238.70630249 201.83170288 239.28702515 201.33348022 239.88534546 200.82015991 C241.65319746 199.30290044 243.42070597 197.78524192 245.18807983 196.26742554 C252.53659051 189.9565424 259.89548301 183.65938174 267.29598999 177.40951538 C271.25273762 174.06536369 275.19325482 170.70275342 279.12557983 167.32992554 C279.70477173 166.83323364 280.28396362 166.33654175 280.88070679 165.82479858 C283.85564025 163.27232135 286.82785064 160.71672572 289.79745483 158.15805054 C295.12928618 153.56906643 300.47137654 149.00864719 305.93807983 144.57992554 C310.31959779 141.0247465 314.50518665 137.29973017 318.67636108 133.50180054 C321.18959215 131.26608021 323.76119463 129.13364872 326.37557983 127.01742554 C332.81519976 121.80224038 339.04263387 116.35410802 345.29159546 110.91390991 C349.98592505 106.83840029 354.71706724 102.80558707 359.44100952 98.76449585 C361.22643607 97.23455795 363.00844129 95.70071753 364.78964233 94.16586304 C370.12358048 89.57365418 375.46850196 85.01097596 380.93807983 80.57992554 C385.30239927 77.03870143 389.47350888 73.33087245 393.62557983 69.54476929 C397.29898131 66.28014572 401.1112452 63.1972057 404.93807983 60.11508179 C407.20927732 58.31137393 407.20927732 58.31137393 409.18807983 56.26742554 C408.95247944 50.14181531 407.20694629 46.17029071 402.78185463 41.91523516 C395.89389686 36.73327193 387.84426057 37.57209919 379.63876343 37.63250732 C377.93813429 37.62674311 376.23751139 37.61879998 374.53690147 37.6088711 C369.87280268 37.58801565 365.209216 37.59830703 360.54511547 37.61380219 C355.5116194 37.62511708 350.47821126 37.60765229 345.44473267 37.59390259 C335.58775671 37.57166717 325.7309711 37.57647276 315.87398767 37.59096579 C307.86317031 37.60225681 299.85240629 37.60378952 291.84158325 37.59834671 C290.13150056 37.59719746 290.13150056 37.59719746 288.38687074 37.596025 C286.07088485 37.59442637 283.75489897 37.59280531 281.43891311 37.59116204 C259.72088701 37.57690364 238.00296644 37.59329872 216.28495765 37.62016387 C197.64909657 37.64250271 179.01339122 37.6386226 160.37753296 37.61557007 C138.7373301 37.5888137 117.09721973 37.57827695 95.45700264 37.59363139 C93.14952725 37.59522414 90.84205184 37.59679599 88.53457642 37.59834671 C86.83158467 37.59950378 86.83158467 37.59950378 85.09418905 37.60068422 C77.09280959 37.6050017 69.09148878 37.59771361 61.09011841 37.58594894 C51.33934793 37.57192726 41.58877871 37.57571703 31.83803129 37.60235266 C26.8628173 37.6154952 21.88793888 37.62063565 16.91272736 37.6041069 C12.35788532 37.58920355 7.80368979 37.59740193 3.24890637 37.62399466 C1.60164505 37.62957799 -0.04567093 37.62674245 -1.69289708 37.61461572 C-12.01619823 37.54444877 -19.29579976 37.94071942 -26.24942017 46.14242554 Z M-28.81192017 106.26742554 C-28.90349361 139.76326903 -28.97396797 173.25908136 -29.01618148 206.75502226 C-29.02118426 210.71032876 -29.02636155 214.66563502 -29.03164673 218.62094116 C-29.03269597 219.40836498 -29.03374521 220.19578879 -29.03482625 221.00707394 C-29.05222722 233.75369794 -29.0837632 246.50024971 -29.12053135 259.24683088 C-29.15794936 272.32788855 -29.18015783 285.40890842 -29.18827415 298.49001741 C-29.19376015 306.56053068 -29.21108151 314.63083978 -29.24358603 322.70129019 C-29.26724733 328.8917599 -29.26973783 335.08207425 -29.26435089 341.27258301 C-29.26545171 343.81062578 -29.2734133 346.34867625 -29.28874207 348.88667297 C-29.30864793 352.3523757 -29.30385617 355.81720547 -29.29293823 359.28292847 C-29.3045896 360.28683609 -29.31624096 361.2907437 -29.3282454 362.32507277 C-29.27595395 368.46768984 -28.34615762 373.15071202 -24.81192017 378.26742554 C-19.70988291 383.11436093 -15.90922336 384.51652254 -8.90771866 384.52748775 C-8.20989009 384.53129343 -7.51206153 384.5350991 -6.79308665 384.53902009 C-4.44319051 384.54936704 -2.09353454 384.54542404 0.25637817 384.5415802 C1.95354901 384.54603093 3.65071777 384.55134443 5.34788346 384.55744892 C10.02086551 384.57165926 14.69378115 384.57329164 19.36678171 384.57285202 C24.40305368 384.57449756 29.43929807 384.58755915 34.47555542 384.5990448 C45.4920329 384.62191439 56.50849113 384.62981751 67.52498913 384.63487124 C74.40168483 384.63812597 81.27837492 384.64464709 88.15506744 384.65187263 C107.18887528 384.67144108 126.22267789 384.68784387 145.25649643 384.69074917 C146.47499928 384.69093674 147.69350214 384.69112431 148.94892932 384.69131756 C151.4192125 384.69168382 153.88949568 384.69204751 156.35977885 384.69240867 C158.19919702 384.69268289 158.19919702 384.69268289 160.07577515 384.69296265 C161.30354794 384.6931432 162.53132074 384.69332374 163.79629877 384.69350976 C183.69465695 384.69705208 203.59290695 384.72407702 223.4912276 384.76146054 C243.91298277 384.7995209 264.33468424 384.81890648 284.75647569 384.81920868 C296.22563126 384.81979376 307.6946578 384.82831836 319.16378021 384.85720634 C328.92926324 384.88168984 338.69457018 384.8890236 348.46007559 384.87395882 C353.44337906 384.86677754 358.42633459 384.86769986 363.4095993 384.89036942 C367.97197529 384.9109256 372.53373511 384.90839056 377.09610417 384.88749457 C378.74618791 384.88399323 380.39631581 384.88893696 382.04634163 384.90319901 C394.10415476 385.18166783 394.10415476 385.18166783 404.18807983 379.26742554 C407.64915529 374.83014931 409.31378483 371.37925303 409.31112766 365.77529621 C409.31311871 364.84970663 409.31510976 363.92411706 409.31716114 362.97047931 C409.31279188 361.44277157 409.31279188 361.44277157 409.30833435 359.88420105 C409.30918878 358.80357995 409.3100432 357.72295885 409.31092352 356.60959166 C409.31257718 352.97053596 409.30705876 349.33152585 409.30160522 345.69247437 C409.3013233 343.09107972 409.30148118 340.489685 409.30204773 337.88829041 C409.30257254 332.27835934 409.29943023 326.66843988 409.29380989 321.05851173 C409.28568907 312.94745934 409.28307907 304.83641256 409.2818219 296.72535654 C409.2796323 283.56628065 409.27297469 270.40721095 409.26351929 257.24813843 C409.2543428 244.46395906 409.24726312 231.67978136 409.24301147 218.89559937 C409.24274875 218.1078207 409.24248603 217.32004204 409.24221534 216.5083913 C409.24091032 212.5564084 409.23964661 208.60442549 409.23840344 204.65244257 C409.22803369 171.85743239 409.21041786 139.06242979 409.18807983 106.26742554 C407.93022803 107.20108909 406.67374349 108.13659478 405.41781616 109.07284546 C404.36803337 109.85397957 404.36803337 109.85397957 403.29704285 110.65089417 C400.03204826 113.15352989 396.95798135 115.85806041 393.87557983 118.57992554 C389.43374832 122.46949947 384.96831291 126.30540122 380.37557983 130.01742554 C376.88572095 132.84230392 373.5079747 135.74460133 370.18807983 138.76742554 C366.86818497 141.79024975 363.49043872 144.69254715 360.00057983 147.51742554 C353.5609599 152.73261069 347.3335258 158.18074305 341.08456421 163.62094116 C336.39023462 167.69645078 331.65909243 171.729264 326.93515015 175.77035522 C325.1497236 177.30029312 323.36771838 178.83413354 321.58651733 180.36898804 C316.25257919 184.96119689 310.9076577 189.52387511 305.43807983 193.95492554 C301.05656188 197.51010458 296.87097302 201.23512091 292.69979858 205.03305054 C290.18656752 207.26877086 287.61496504 209.40120236 285.00057983 211.51742554 C278.5609599 216.73261069 272.3335258 222.18074305 266.08456421 227.62094116 C261.39023462 231.69645078 256.65909243 235.729264 251.93515015 239.77035522 C250.1497236 241.30029312 248.36771838 242.83413354 246.58651733 244.36898804 C243.12984832 247.34631978 239.66207777 250.31034175 236.18807983 253.26742554 C234.73401733 254.50879272 234.73401733 254.50879272 233.25057983 255.77523804 C218.6169787 268.03919353 203.73189308 275.80457939 184.18807983 274.26742554 C169.9698795 271.9119153 159.23420466 266.53770038 148.66464233 256.57211304 C146.18912936 254.26840223 143.63390754 252.13806997 141.00057983 250.01742554 C134.56259078 244.80356116 128.33644418 239.357013 122.08895874 233.91830444 C114.14202302 227.01653468 106.12130085 220.20055268 98.07992554 213.40927124 C94.12321978 210.06524758 90.18281771 206.70267868 86.25057983 203.32992554 C85.38179199 202.5848877 85.38179199 202.5848877 84.49545288 201.82479858 C81.52051942 199.27232135 78.54830903 196.71672572 75.57870483 194.15805054 C70.24687349 189.56906643 64.90478313 185.00864719 59.43807983 180.57992554 C55.05656188 177.0247465 50.87097302 173.29973017 46.69979858 169.50180054 C44.18656752 167.26608021 41.61496504 165.13364872 39.00057983 163.01742554 C32.5609599 157.80224038 26.3335258 152.35410802 20.08456421 146.91390991 C15.39023462 142.83840029 10.65909243 138.80558707 5.93515015 134.76449585 C4.1497236 133.23455795 2.36771838 131.70071753 0.58651733 130.16586304 C-11.9580162 119.35640116 -11.9580162 119.35640116 -24.9803772 109.13412476 C-25.69855621 108.59649506 -26.41673523 108.05886536 -27.15667725 107.50494385 C-27.70290741 107.09656281 -28.24913757 106.68818176 -28.81192017 106.26742554 Z " fill="#000000" transform="translate(65.81192016601563,44.732574462890625)"/>
</svg>
